# xmcd CD database file
#
# Track frame offsets:
#	150
#	16661
#	32785
#	47472
#	70235
#	86431
#	98734
#	119500
#	136828
#	153810
#
# Disc length: 2291 seconds
#
# Revision: 0
# Processed by: cddbd v1.5.2PL0 Copyright (c) Steve Scherf et al.
# Submitted via: CDex 1.51
#
DISCID=6f08f10a
DTITLE=Erin and Neil Harpe - delta blues duets
DYEAR=2008
DGENRE=Blues
TTITLE0=Bye Bye Blues
TTITLE1=Called You This Mornin'
TTITLE2=Chauffeur Blues
TTITLE3=Kokomo Blues
TTITLE4=Fishin' Blues
TTITLE5=In My Girlish Days
TTITLE6=Mississippi Delta Blues
TTITLE7=Down and Out
TTITLE8=Stop and Listen Blues
TTITLE9=Winnie the Wailer
EXTD=YEAR: 2008
EXTT0=
EXTT1=
EXTT2=
EXTT3=
EXTT4=
EXTT5=
EXTT6=
EXTT7=
EXTT8=
EXTT9=
PLAYORDER=
